<?xml version="1.0" standalone="no"?>
<!DOCTYPE svg PUBLIC "-//W3C//DTD SVG 20010904//EN"
 "http://www.w3.org/TR/2001/REC-SVG-20010904/DTD/svg10.dtd">
<svg version="1.0" xmlns="http://www.w3.org/2000/svg"
 width="395.000000pt" height="395.000000pt" viewBox="0 0 395.000000 395.000000"
 preserveAspectRatio="xMidYMid meet">
<metadata>
Created by potrace 1.14, written by Peter Selinger 2001-2017
</metadata>
<g transform="translate(0.000000,395.000000) scale(0.100000,-0.100000)"
fill="#000000" stroke="none">
<path d="M1429 3934 c-6 -7 -15 -11 -20 -8 -5 3 -9 -2 -9 -11 0 -9 -4 -13 -10
-10 -5 3 -10 2 -10 -3 0 -5 -9 -20 -20 -33 -11 -13 -23 -28 -28 -34 -4 -5 -9
-14 -10 -20 -2 -5 -12 -20 -22 -32 -11 -13 -17 -23 -13 -23 4 0 -3 -9 -15 -20
-12 -12 -22 -27 -22 -35 0 -8 -4 -15 -9 -15 -5 0 -24 -24 -41 -52 -18 -29 -36
-55 -40 -58 -4 -3 -8 -13 -8 -22 -1 -10 -3 -26 -3 -35 -1 -10 -6 -23 -11 -30
-5 -6 -10 -26 -10 -43 -1 -17 -5 -33 -9 -36 -4 -2 -6 -13 -4 -24 2 -11 0 -20
-4 -20 -5 0 -7 -10 -7 -22 1 -13 -1 -27 -5 -33 -4 -5 -9 -21 -11 -35 -3 -23
-7 -25 -50 -24 -26 0 -45 -3 -42 -8 3 -4 -41 -7 -96 -7 -55 0 -105 -3 -110 -6
-6 -3 -10 -2 -10 3 0 5 -19 6 -42 2 -24 -3 -62 -5 -85 -4 -27 1 -40 -3 -36 -9
3 -6 1 -7 -6 -3 -21 13 -61 17 -61 6 0 -7 -5 -8 -12 -3 -18 11 -67 12 -74 2
-3 -5 -13 -9 -23 -9 -30 0 -72 -57 -72 -98 0 -39 8 -157 11 -157 1 0 3 -8 5
-17 2 -10 -1 -18 -6 -18 -5 0 -5 -10 0 -22 7 -20 10 -56 15 -163 1 -16 5 -35
9 -42 9 -15 -22 -26 -98 -37 -56 -7 -103 -33 -120 -66 -18 -35 -19 -140 -1
-140 6 0 4 -5 -4 -10 -12 -8 -12 -10 -1 -10 10 0 11 -3 2 -13 -6 -8 -7 -17 -3
-21 4 -4 8 -20 8 -34 5 -78 10 -122 14 -122 3 0 5 -19 4 -42 0 -24 4 -46 10
-50 7 -5 7 -8 -2 -8 -7 0 -11 -4 -8 -9 4 -5 8 -31 11 -58 3 -26 7 -70 11 -98
3 -27 7 -71 7 -97 1 -27 5 -48 8 -48 3 0 5 -16 4 -35 -1 -19 1 -35 5 -35 3 0
4 -16 2 -35 -3 -21 0 -35 7 -35 7 0 8 -8 1 -24 -5 -13 -6 -27 -2 -31 8 -8 11
-44 16 -195 2 -63 5 -115 6 -115 1 0 3 -53 4 -117 0 -64 3 -119 6 -121 3 -3 4
-54 4 -114 -1 -59 2 -115 7 -124 5 -9 4 -20 -2 -26 -7 -7 -7 -13 -1 -17 7 -4
7 -17 2 -36 -5 -19 -5 -30 1 -30 6 0 7 -6 3 -12 -11 -17 -12 -48 -3 -48 5 0 4
-11 -1 -25 -6 -16 -6 -25 0 -25 5 0 10 -21 9 -47 0 -102 22 -132 151 -208 28
-16 60 -38 72 -48 12 -9 28 -18 37 -18 17 -1 33 -4 41 -8 5 -3 40 -8 110 -17
61 -8 223 -9 288 -2 28 4 50 3 47 -2 -3 -5 1 -10 7 -13 10 -3 10 -7 2 -18 -6
-8 -10 -24 -9 -37 1 -12 -3 -22 -8 -22 -5 0 -7 -7 -4 -15 4 -8 2 -17 -3 -20
-14 -9 -4 -93 14 -110 9 -9 16 -21 16 -26 0 -5 9 -9 20 -9 11 0 20 -4 20 -9 0
-11 107 -11 138 0 15 6 22 5 22 -4 0 -8 4 -7 10 3 7 11 10 11 10 2 0 -7 5 -10
10 -7 12 7 113 17 198 18 28 1 52 4 52 7 0 3 27 5 60 4 33 -1 60 2 60 7 0 4
14 4 30 -1 21 -6 30 -5 30 3 0 7 4 6 10 -3 6 -10 10 -11 10 -3 0 9 18 12 61
10 33 -2 62 0 65 4 2 4 30 8 62 9 70 2 157 7 157 10 0 9 41 6 47 -3 4 -7 8 -8
8 -2 0 7 33 12 82 13 45 2 86 6 91 9 5 3 53 7 106 9 103 4 120 6 138 17 6 4
14 3 17 -2 6 -8 65 -5 75 5 2 2 10 -1 18 -7 7 -6 13 -7 13 -2 0 5 12 9 28 10
150 7 202 12 211 17 6 4 11 2 11 -5 0 -8 4 -8 13 -1 6 6 35 11 62 13 41 2 56
8 83 36 18 18 30 38 27 43 -3 6 -2 10 3 10 14 0 5 71 -15 115 -9 22 -18 45
-18 50 0 6 -4 16 -8 23 -14 21 1 29 53 27 27 -1 50 1 50 4 0 4 24 7 53 7 28 1
68 5 87 8 19 4 46 9 60 11 14 1 26 4 28 5 1 1 6 3 11 4 5 0 12 4 16 8 4 4 13
4 21 1 12 -5 96 22 119 37 14 10 89 34 98 32 4 -1 7 2 7 7 0 5 8 12 18 15 16
5 49 49 51 69 1 4 1 8 2 10 7 23 6 44 -4 56 -9 12 -9 13 0 8 9 -6 12 2 11 28
-1 19 -6 35 -12 35 -7 0 -7 3 1 8 12 7 15 102 3 102 -8 0 -6 53 3 67 4 6 3 14
-2 17 -5 3 -7 19 -6 36 1 17 -1 32 -5 35 -3 2 -6 40 -4 85 1 44 -1 80 -4 80
-4 0 -6 39 -6 87 1 48 -2 98 -7 110 -5 15 -5 23 2 23 6 0 7 5 3 11 -11 18 -10
109 1 109 6 0 2 7 -7 14 -10 7 -15 16 -11 19 9 9 3 157 -11 302 -3 28 -8 79
-11 115 -6 63 -12 105 -15 105 -1 0 -3 29 -5 65 -2 36 -4 67 -6 70 -1 3 -3 21
-4 40 -2 19 -4 37 -5 40 -2 5 -5 30 -14 130 -3 36 -9 90 -12 120 -4 30 -7 70
-7 88 -1 17 -4 32 -8 32 -3 0 -5 18 -5 41 1 22 -2 43 -7 46 -5 3 -3 9 4 14 8
5 9 9 3 9 -5 0 -9 14 -8 30 1 17 -1 30 -4 30 -4 0 -7 15 -8 33 -1 33 -8 71
-18 97 -3 8 -8 28 -10 44 -3 16 -7 31 -10 34 -3 2 -1 13 5 23 6 13 6 19 -1 19
-5 0 -10 11 -10 24 0 14 -4 36 -10 51 -6 15 -6 24 -1 20 5 -3 -4 33 -20 81
-16 47 -29 92 -29 100 0 8 -4 14 -8 14 -7 0 -11 16 -14 58 -1 6 -5 12 -8 12
-7 0 -24 58 -21 73 0 4 -4 7 -10 7 -5 0 -8 4 -5 8 3 5 -5 20 -17 33 -12 13
-21 27 -19 31 1 5 -2 8 -7 8 -5 0 -28 26 -52 58 -23 31 -46 59 -51 60 -4 2 -8
8 -8 13 0 21 -137 162 -149 154 -6 -3 -12 -1 -15 4 -8 12 -75 -6 -100 -27 -10
-10 -36 -40 -57 -68 -20 -28 -45 -58 -54 -67 -9 -10 -14 -17 -10 -17 3 0 -4
-11 -17 -24 -13 -13 -30 -33 -38 -46 -8 -12 -25 -33 -38 -47 -12 -13 -20 -28
-17 -33 3 -4 0 -10 -7 -12 -6 -2 -13 -11 -14 -19 -2 -7 -6 -25 -9 -39 -4 -14
-7 -31 -7 -37 -1 -7 -6 -13 -11 -13 -6 0 -8 -3 -4 -6 3 -3 -1 -23 -8 -45 -8
-22 -14 -43 -15 -47 0 -4 -7 -32 -16 -62 -9 -30 -17 -73 -19 -95 -2 -22 -4
-40 -5 -40 -1 0 -3 -13 -5 -30 -8 -59 -15 -77 -28 -68 -11 8 -485 9 -577 1
-28 -2 -35 0 -34 15 1 9 -1 17 -5 17 -4 0 -8 6 -8 13 -1 12 -7 42 -18 87 -4
14 -10 42 -14 62 -5 21 -14 45 -22 54 -8 10 -13 19 -11 21 6 8 -22 83 -31 83
-6 0 -8 3 -4 6 3 3 -5 31 -18 61 -14 30 -26 62 -27 71 -2 9 -12 25 -22 35 -10
9 -17 17 -14 17 3 0 -21 27 -53 60 -32 33 -56 60 -54 60 3 0 -56 66 -121 136
-17 18 -34 30 -38 27 -3 -4 -6 1 -6 10 0 11 -9 18 -22 18 -13 1 -37 3 -55 5
-18 1 -37 -4 -44 -12z"/>
</g>
</svg>
